<svg xmlns="http://www.w3.org/2000/svg" version="1.1" width="139.10201" height="84.400002" viewBox="0 0 139.102 84.4" id="svg1" sodipodi:docname="F.svg" inkscape:export-filename="F-pink.svg" inkscape:export-xdpi="96" inkscape:export-ydpi="96" xmlns:inkscape="http://www.inkscape.org/namespaces/inkscape" xmlns:sodipodi="http://sodipodi.sourceforge.net/DTD/sodipodi-0.dtd" xmlns:svg="http://www.w3.org/2000/svg"><defs id="defs1"></defs><sodipodi:namedview id="namedview1" pagecolor="#ffffff" bordercolor="#000000" borderopacity="0.25" inkscape:showpageshadow="2" inkscape:pageopacity="0.0" inkscape:pagecheckerboard="0" inkscape:deskcolor="#d1d1d1">
    <inkscape:page x="0" y="0" width="139.10201" height="84.400002" id="page2" margin="0" bleed="0"></inkscape:page>
  </sodipodi:namedview><g id="svgGroup" stroke-linecap="round" fill-rule="evenodd" font-size="12px" stroke="#000000" stroke-width="0" fill="#000000" style="fill:#6b4560;fill-opacity:1;stroke:#000000;stroke-width:0">
    <path d="m 36.202,84.4 q -11,0 -19.15,-3.4 -8.15,-3.4 -12.6,-9.35 -4.45,-5.95 -4.45,-13.55 0,-6.2 2.2,-11.3 2.2,-5.1 5.85,-8.5 3.65,-3.4 8.05,-4.5 0.7,-0.1 0.7,0.5 0,0.5 -0.5,0.8 -5.2,3.1 -7.95,8.9 -2.75,5.8 -2.75,12.9 0,7.7 4,13.25 4,5.55 10.95,8.5 6.95,2.95 15.65,2.95 7.5,0 14.25,-2.65 6.75,-2.65 12.45,-7.25 5.7,-4.6 10.25,-10.45 4.55,-5.85 7.65,-12.25 0.7,-1.5 1.4,-2.9 l 1.4,-2.8 q -2.4,-0.1 -4.35,-0.2 -1.95,-0.1 -2.65,-0.1 -2.7,0 -5.75,0.35 -3.05,0.35 -5.7,1.35 -2.65,1 -4.35,3.1 -0.7,0.7 -0.85,1.1 -0.15,0.4 -0.45,0.4 -0.4,0 -0.7,-0.65 -0.3,-0.65 0.1,-1.45 2.3,-5.1 6.5,-6.95 4.2,-1.85 9.4,-1.85 1.1,0 4.15,0.35 3.05,0.35 6.45,0.75 4.4,-8.9 8.05,-16.1 3.65,-7.2 6.85,-12 -7.2,-2.4 -15.3,-4.25 -8.1,-1.85 -17.4,-1.85 -6.9,0 -12.5,1.9 -5.6,1.9 -9.55,5.1 -3.95,3.2 -6.05,7.1 -2.1,3.9 -2.1,7.8 0,4.4 1.7,7 1.7,2.6 4.45,3.75 2.75,1.15 5.65,1.15 4.3,0 7.35,-2.1 3.05,-2.1 4.85,-4.75 1.8,-2.65 2.2,-4.35 0.4,-1.6 1.2,-1.6 1.2,0 1,1.4 -0.6,4.4 -3.1,7.6 -2.5,3.2 -6.1,4.85 -3.6,1.65 -7.6,1.65 -4.1,0 -7.9,-2 -3.8,-2 -6.2,-5.8 -2.4,-3.8 -2.4,-9.2 0,-4.4 1.95,-8.75 1.95,-4.35 5.9,-8 3.95,-3.65 10.05,-5.85 6.1,-2.2 14.4,-2.2 5.9,0 12.1,1.35 6.2,1.35 12.55,3.4 6.35,2.05 12.55,4.25 2.1,-2.7 4,-4.15 1.9,-1.45 3.8,-1.45 0.8,0 1.1,0.35 0.3,0.35 0.3,0.65 0,0.4 -0.3,0.9 -0.3,0.5 -1.1,0.5 -3.3,0 -6.2,3.7 7.2,2.4 13.85,4.25 6.65,1.85 12.35,1.85 4.4,0 5.8,-0.95 1.4,-0.95 1.4,-2.65 0,-1.1 0.7,-1.1 0.5,0 0.95,0.65 0.45,0.65 0.45,1.55 0,2.4 -2.65,3.9 -2.65,1.5 -7.35,1.5 -6.2,0 -12.9,-2.05 -6.7,-2.05 -14.2,-4.55 -2.7,4.5 -5.3,11.75 -2.6,7.25 -6.1,16.35 4.3,0.4 9.1,0.65 4.8,0.25 7.8,0.25 1,0 1,0.6 0,0.8 -2.3,1.4 -1.5,0.4 -5.05,0.6 -3.55,0.2 -7.35,0.2 -0.8,0 -2,-0.05 -1.2,-0.05 -2.6,-0.05 -0.9,2.3 -1.85,4.65 -0.95,2.35 -2.05,4.85 -4.2,9.9 -10.25,16.05 -6.05,6.15 -12.9,9.5 -6.85,3.35 -13.6,4.55 -6.75,1.2 -12.35,1.2 z" vector-effect="non-scaling-stroke" id="path1" style="fill:#6b4560;fill-opacity:1"></path>
  </g></svg>