<svg xmlns="http://www.w3.org/2000/svg" viewBox="0 0 500 500" width="500" height="500">
  <defs>
    <radialGradient id="bg" cx="50%" cy="40%" r="60%">
      <stop offset="0%" stop-color="#fff5f8"/>
      <stop offset="60%" stop-color="#f7c5d5"/>
      <stop offset="100%" stop-color="#e8a0bc"/>
    </radialGradient>
    <radialGradient id="vignette" cx="50%" cy="50%" r="50%">
      <stop offset="50%" stop-color="#f7c5d5" stop-opacity="0"/>
      <stop offset="100%" stop-color="#c9899a" stop-opacity="0.3"/>
    </radialGradient>
  </defs>

  <circle cx="250" cy="250" r="250" fill="url(#bg)"/>
  <circle cx="250" cy="250" r="250" fill="url(#vignette)"/>

  <g transform="translate(63.3, 136.7) scale(2.684)">
    <path d="M 36.202 84.4 Q 25.202 84.4 17.052 81 Q 8.902 77.6 4.452 71.65 Q 0.002 65.7 0.002 58.1 Q 0.002 51.9 2.202 46.8 Q 4.402 41.7 8.052 38.3 Q 11.702 34.9 16.102 33.8 Q 16.802 33.7 16.802 34.3 Q 16.802 34.8 16.302 35.1 Q 11.102 38.2 8.352 44 Q 5.602 49.8 5.602 56.9 Q 5.602 64.6 9.602 70.15 Q 13.602 75.7 20.552 78.65 Q 27.502 81.6 36.202 81.6 Q 43.702 81.6 50.452 78.95 Q 57.202 76.3 62.902 71.7 Q 68.602 67.1 73.152 61.25 Q 77.702 55.4 80.802 49 Q 81.502 47.5 82.202 46.1 L 83.602 43.3 Q 81.202 43.2 79.252 43.1 Q 77.302 43 76.602 43 Q 73.902 43 70.852 43.35 Q 67.802 43.7 65.152 44.7 Q 62.502 45.7 60.802 47.8 Q 60.102 48.5 59.952 48.9 Q 59.802 49.3 59.502 49.3 Q 59.102 49.3 58.802 48.65 Q 58.502 48 58.902 47.2 Q 61.202 42.1 65.402 40.25 Q 69.602 38.4 74.802 38.4 Q 75.902 38.4 78.952 38.75 Q 82.002 39.1 85.402 39.5 Q 89.802 30.6 93.452 23.4 Q 97.102 16.2 100.302 11.4 Q 93.102 9 85.002 7.15 Q 76.902 5.3 67.602 5.3 Q 60.702 5.3 55.102 7.2 Q 49.502 9.1 45.552 12.3 Q 41.602 15.5 39.502 19.4 Q 37.402 23.3 37.402 27.2 Q 37.402 31.6 39.102 34.2 Q 40.802 36.8 43.552 37.95 Q 46.302 39.1 49.202 39.1 Q 53.502 39.1 56.552 37 Q 59.602 34.9 61.402 32.25 Q 63.202 29.6 63.602 27.9 Q 64.002 26.3 64.802 26.3 Q 66.002 26.3 65.802 27.7 Q 65.202 32.1 62.702 35.3 Q 60.202 38.5 56.602 40.15 Q 53.002 41.8 49.002 41.8 Q 44.902 41.8 41.102 39.8 Q 37.302 37.8 34.902 34 Q 32.502 30.2 32.502 24.8 Q 32.502 20.4 34.452 16.05 Q 36.402 11.7 40.352 8.05 Q 44.302 4.4 50.402 2.2 Q 56.502 0 64.802 0 Q 70.702 0 76.902 1.35 Q 83.102 2.7 89.452 4.75 Q 95.802 6.8 102.002 9 Q 104.102 6.3 106.002 4.85 Q 107.902 3.4 109.802 3.4 Q 110.602 3.4 110.902 3.75 Q 111.202 4.1 111.202 4.4 Q 111.202 4.8 110.902 5.3 Q 110.602 5.8 109.802 5.8 Q 106.502 5.8 103.602 9.5 Q 110.802 11.9 117.452 13.75 Q 124.102 15.6 129.802 15.6 Q 134.202 15.6 135.602 14.65 Q 137.002 13.7 137.002 12 Q 137.002 10.9 137.702 10.9 Q 138.202 10.9 138.652 11.55 Q 139.102 12.2 139.102 13.1 Q 139.102 15.5 136.452 17 Q 133.802 18.5 129.102 18.5 Q 122.902 18.5 116.202 16.45 Q 109.502 14.4 102.002 11.9 Q 99.302 16.4 96.702 23.65 Q 94.102 30.9 90.602 40 Q 94.902 40.4 99.702 40.65 Q 104.502 40.9 107.502 40.9 Q 108.502 40.9 108.502 41.5 Q 108.502 42.3 106.202 42.9 Q 104.702 43.3 101.152 43.5 Q 97.602 43.7 93.802 43.7 Q 93.002 43.7 91.802 43.65 Q 90.602 43.6 89.202 43.6 Q 88.302 45.9 87.352 48.25 Q 86.402 50.6 85.302 53.1 Q 81.102 63 75.052 69.15 Q 69.002 75.3 62.152 78.65 Q 55.302 82 48.552 83.2 Q 41.802 84.4 36.202 84.4 Z" fill="#6b4560"/>
  </g>

  <!-- Sparkles — clustered top-right, sparse elsewhere -->
  <path d="M 398,62 C 397,80 389,88 371,89 C 389,90 397,98 398,116 C 399,98 407,90 425,89 C 407,88 399,80 398,62 Z" fill="#fffafd" opacity="0.92"/>
  <path d="M 434,108 C 433.5,117 429,121 420,121.5 C 429,122 433.5,126 434,135 C 434.5,126 439,122 448,121.5 C 439,121 434.5,117 434,108 Z" fill="#fffafd" opacity="0.75"/>
  <path d="M 415,136 C 414.8,140 413,142 409,142.2 C 413,142.4 414.8,144 415,148 C 415.2,144 417,142.4 421,142.2 C 417,142 415.2,140 415,136 Z" fill="#fffafd" opacity="0.55"/>
  <path d="M 88,368 C 87.2,381 81,387 68,387.8 C 81,388.6 87.2,394 88,407 C 88.8,394 95,388.6 108,387.8 C 95,387 88.8,381 88,368 Z" fill="#fffafd" opacity="0.82"/>
  <path d="M 52,195 C 51.6,201 49,203 43,203.4 C 49,203.8 51.6,206 52,212 C 52.4,206 55,203.8 61,203.4 C 55,203 52.4,201 52,195 Z" fill="#fffafd" opacity="0.5"/>
  <path d="M 418,400 C 417.7,405 415.5,407 410,407.3 C 415.5,407.6 417.7,410 418,415 C 418.3,410 420.5,407.6 426,407.3 C 420.5,407 418.3,405 418,400 Z" fill="#fffafd" opacity="0.48"/>
  <path d="M 76,95 C 75.7,99 73.8,101 69,101.3 C 73.8,101.6 75.7,104 76,108 C 76.3,104 78.2,101.6 83,101.3 C 78.2,101 76.3,99 76,95 Z" fill="#fffafd" opacity="0.4"/>
</svg>
